<svg width="90" height="41" viewBox="0 0 90 41" fill="none" xmlns="http://www.w3.org/2000/svg">
<path d="M83.8196 8.77435C83.8196 7.13576 85.1337 5.77026 86.7105 5.77026C88.3062 5.77026 89.6203 7.11625 89.6015 8.77435C89.6015 10.4129 88.2875 11.7784 86.7105 11.7784C85.1337 11.7784 83.8196 10.4129 83.8196 8.77435Z" fill="white"/>
<path d="M77.9437 21.9416C76.4231 20.3615 74.9776 19.6593 73.213 19.6593C69.8339 19.6593 67.1682 22.5658 67.187 26.2722V26.3307C67.187 30.0175 69.9278 33.0216 73.2881 33.0216C74.8838 33.0216 76.2542 32.4169 77.6246 31.0904L81.3791 34.8553C79.0513 37.2351 76.4044 38.4056 73.2318 38.4056C66.9805 38.4056 61.8931 33.0021 61.8931 26.3892V26.3307C61.8931 19.6983 66.9805 14.3144 73.2693 14.3144C77.2679 14.3144 79.8022 16.1675 81.5668 17.9817L77.9437 21.9416Z" fill="white"/>
<path fill-rule="evenodd" clip-rule="evenodd" d="M59.096 16.07C59.096 18.1182 58.4014 20.186 56.8996 21.766C59.0584 23.3266 60.0158 25.9796 59.9971 28.6911C59.9971 33.8409 57.3313 37.9179 49.597 37.9179H39.1406V7.35033H49.4093C56.6555 7.35033 59.096 11.2908 59.096 16.07ZM49.5219 12.7733H44.4158V19.4252H49.841C52.6945 19.4252 53.3703 17.6891 53.3703 16.07C53.3703 14.3924 52.8071 12.7733 49.5219 12.7733ZM44.4345 32.5144H49.766C53.5393 32.5144 54.3089 30.6223 54.3465 28.7106C54.3465 26.0771 53.1262 24.8482 49.8598 24.8482H44.4345V32.5144Z" fill="white"/>
<path d="M84.1012 14.2753H89.3763V37.9374H84.1012V14.2753Z" fill="white"/>
<path d="M0.00563911 36.8618C0.0720248 38.8918 1.53251 40.6219 3.47982 40.9449C3.74536 40.991 4.01091 41.0141 4.27645 40.991C5.38288 40.9449 6.40079 40.4604 7.13103 39.63C7.8834 38.7995 8.25959 37.6922 8.21533 36.5619C8.21533 33.4708 9.91923 31.3715 12.2427 28.9955C14.6769 27.127 18.1511 24.8432 23.0415 22.0058C29.1268 18.6379 33.0878 14.6471 33.9508 11.3944L33.973 11.3022C34.0836 10.8869 34.1279 10.4717 34.1057 10.0565C34.0394 8.02647 32.5789 6.29635 30.6316 5.9734C30.366 5.92726 30.1005 5.90419 29.8349 5.92726C28.7285 5.9734 27.7106 6.45783 26.9803 7.28829C26.228 8.11875 25.8518 9.22602 25.896 10.3564C25.896 13.609 24.0151 15.7774 21.4703 18.2918C16.0488 22.6979 11.0478 24.9124 11.0478 24.9124C4.96244 28.2804 1.00142 32.2712 0.13841 35.5238L0.116282 35.6161C0.0277677 36.0544 -0.0164894 36.4696 0.00563911 36.8618Z" fill="#EF3942"/>
<path d="M24.5233 23.8512C24.5233 23.8512 28.949 25.0738 27.5549 31.556C27.4885 31.902 27.4442 32.248 27.4885 32.6171C27.6434 34.5318 29.2588 35.939 31.0954 35.7775C32.9321 35.616 34.2819 33.932 34.127 32.0174C33.8172 27.5191 25.6739 22.0057 24.5675 22.1442C24.5675 22.1442 23.9258 22.1672 23.9258 23.0207C23.9258 23.7128 24.5233 23.8512 24.5233 23.8512Z" fill="#0C9647"/>
<path d="M23.7875 25.6906C23.7875 25.6906 26.6863 26.498 25.779 30.7195C25.779 30.7195 24.8275 34.7103 18.6979 35.7483C11.7717 36.9479 11.8823 34.295 11.8823 34.295C11.8159 32.9802 11.3512 31.3884 18.2332 27.0516C18.2332 27.0516 21.7074 24.8371 23.7875 25.6906Z" fill="#FDD700"/>
<path d="M6.44663 6.36551C6.84495 12.1326 14.767 19.03 19.5025 21.7059C20.7859 22.4441 22.3792 22.2826 22.8439 22.0981C25.0125 21.06 22.689 20.1834 22.689 20.1834C22.689 20.1834 15.2317 18.1072 17.5552 7.1729C17.6879 6.59619 17.7322 5.99642 17.6879 5.37357C17.4224 2.14402 14.7006 -0.255079 11.6026 0.0217398C8.48246 0.298559 6.18109 3.13595 6.44663 6.36551Z" fill="#2C70B8"/>
</svg>
