<?xml version="1.0" encoding="UTF-8"?>
<svg id="Capa_2" data-name="Capa 2" xmlns="http://www.w3.org/2000/svg" version="1.1" viewBox="0 0 14 14">
  <defs>
    <style>
      .cls-1 {
        fill: #151516;
      }

      .cls-1, .cls-2 {
        stroke-width: 0px;
      }

      .cls-2 {
        fill: #fff;
      }
    </style>
  </defs>
  <path class="cls-1" d="M7,0C3.1,0,0,3.1,0,7h0c0,3.9,3.1,7,7,7h0c3.8,0,7-3.1,7-7h0c0-3.9-3.1-7-7-7h0Z"/>
  <g id="Capa_1-2" data-name="Capa 1-2">
    <path class="cls-1" d="M29.3.5c-3.9,0-7,3.1-7,7h0c0,3.9,3.1,7,7,7h0c3.8,0,7-3.1,7-7h0c0-3.9-3.1-7-7-7h0ZM33.6,3.1l-3.3,3.7,3.8,5h-3l-2.3-3-2.7,3.1h-1.4l3.5-4-3.7-4.8h3.1l2.1,2.8,2.4-2.8s1.5,0,1.5,0ZM32.4,11l-5.3-7h-.9l5.4,7h.8Z"/>
  </g>
  <path class="cls-2" d="M4.4,10.5l2.2-2.5,1.8,2.5h2.4l-3.1-4.1,2.6-3h-1.1l-2,2.3-1.7-2.3h-2.4l3,3.9-2.8,3.2s1.1,0,1.1,0ZM4.5,4.2h.7l4.3,5.6h-.6l-4.3-5.6Z"/>
</svg>