<?xml version="1.0" encoding="UTF-8"?><svg id="Layer_1" xmlns="http://www.w3.org/2000/svg" viewBox="0 0 501.47 501.48"><defs><style>.cls-1{fill:#005092;}.cls-2{fill:#fff;}.cls-3{fill:#e30613;}</style></defs><g><path class="cls-3" d="M501.47,250.74c0,138.49-112.26,250.74-250.74,250.74S0,389.22,0,250.74,112.26,0,250.74,0s250.74,112.26,250.74,250.74"/><path class="cls-1" d="M492.56,250.73c0,133.56-108.27,241.84-241.83,241.84S8.91,384.3,8.91,250.73,117.18,8.91,250.74,8.91s241.83,108.27,241.83,241.83"/><path class="cls-2" d="M425.28,250.74c0,96.4-78.14,174.55-174.55,174.55S76.19,347.13,76.19,250.74,154.34,76.19,250.74,76.19s174.55,78.15,174.55,174.55"/><path class="cls-2" d="M174.99,424.36c-.39-1.58-1.38-3.08-2.96-4.49-1.59-1.42-4.97-3.46-10.17-6.13l-8.04-4.13-21.23,41.35,10.78,5.54,4.17-6.82c-.19-.08-.37-.17-.57-.27l13.96-27.2c1.17,.6,1.91,1.14,2.21,1.6,.3,.46,.37,.99,.23,1.59-.15,.58-.71,1.81-1.67,3.69l-8.24,16.06c-1.43,2.75-2.47,4.36-3.15,4.79-.59,.38-1.5,.29-2.76-.27l-4.17,6.82,2.78,1.43c2.57,1.32,4.57,2.17,5.99,2.54,1.43,.38,2.75,.43,3.98,.17,1.23-.25,2.34-.92,3.33-2,.99-1.07,2.44-3.46,4.34-7.17l7.44-14.48c2.01-3.92,3.24-6.6,3.69-8.06,.45-1.46,.47-2.97,.08-4.56"/><polygon class="cls-2" points="183.83 424.14 202.99 430.39 200.11 439.23 192.43 436.73 189.71 445.11 196.89 447.46 194.14 455.86 186.96 453.53 183.79 463.24 192.24 465.99 189.35 474.83 169.42 468.34 183.83 424.14"/><path class="cls-2" d="M265.78,456.51l-12.09,.03-.02-8.09c0-2.35-.14-3.82-.4-4.41-.26-.58-.83-.87-1.71-.87-1,0-1.62,.36-1.89,1.08-.26,.7-.4,2.24-.39,4.59l.06,21.58c0,2.27,.14,3.74,.41,4.42,.27,.69,.88,1.04,1.81,1.03,.9,0,1.49-.35,1.77-1.04,.27-.68,.41-2.3,.41-4.85l-.02-5.83,12.09-.03v1.81c.01,4.8-.31,8.22-.99,10.23-.67,2.01-2.17,3.77-4.49,5.29-2.32,1.52-5.19,2.28-8.59,2.29-3.54,.01-6.46-.62-8.76-1.9-2.3-1.27-3.83-3.05-4.58-5.31-.76-2.27-1.14-5.68-1.15-10.23l-.04-13.58c0-3.34,.1-5.86,.32-7.54,.23-1.67,.91-3.29,2.04-4.84,1.14-1.55,2.71-2.77,4.74-3.67,2.01-.89,4.34-1.34,6.96-1.35,3.56,0,6.49,.67,8.82,2.05,2.32,1.37,3.84,3.09,4.58,5.14,.73,2.06,1.1,5.25,1.11,9.59l.02,4.42Z"/><polygon class="cls-2" points="295.72 431.33 303.5 477.18 291.58 479.2 288.31 459.94 284.74 460.55 288.02 479.81 276.09 481.83 268.31 435.98 280.23 433.95 283.01 450.34 286.58 449.75 283.8 433.34 295.72 431.33"/><polygon class="cls-2" points="311.59 426.16 325.39 470.58 313.84 474.16 300.03 429.76 311.59 426.16"/><polygon class="cls-2" points="327.96 419.54 342.85 453.6 349.59 450.67 353.31 459.19 335.5 466.97 316.89 424.39 327.96 419.54"/><polygon class="cls-2" points="337.3 415.18 354.6 404.83 359.38 412.82 352.45 416.96 356.97 424.54 363.45 420.67 367.99 428.25 361.51 432.13 366.75 440.9 374.37 436.35 379.14 444.34 361.14 455.09 337.3 415.18"/><polygon class="cls-2" points="19.34 245.04 20.64 224.61 29.93 225.21 29.39 233.57 38.19 234.14 38.67 226.69 47.5 227.25 47.02 234.7 66.5 235.95 65.73 248.01 19.34 245.04"/><polygon class="cls-2" points="60.83 210.33 50.81 208.34 52.29 200.93 43.61 199.2 42.13 206.61 33.48 204.88 35.07 196.96 25.94 195.15 22 214.92 67.6 224.01 71.7 203.45 62.58 201.63 60.83 210.33"/><path class="cls-2" d="M69.85,183.42c-.05,.52-.21,1.14-.47,1.86l-28.68-10.64c.46-1.24,.9-2.03,1.33-2.39,.42-.35,.94-.48,1.54-.41,.61,.08,1.89,.49,3.87,1.22l16.94,6.29c2.9,1.08,4.61,1.93,5.13,2.55,.29,.35,.39,.85,.33,1.52l7.55,3.1,.53-1.43c1.01-2.71,1.61-4.8,1.82-6.25,.2-1.46,.1-2.78-.3-3.98-.41-1.19-1.2-2.22-2.39-3.07-1.18-.86-3.73-2.01-7.64-3.47l-15.26-5.66c-4.13-1.54-6.95-2.44-8.45-2.71-1.51-.27-3.02-.12-4.54,.46-1.52,.58-2.89,1.73-4.11,3.48-1.22,1.74-2.85,5.35-4.88,10.83l-3.15,8.48,43.59,16.19,4.78-12.87-7.55-3.1Z"/><polygon class="cls-2" points="44.39 145.72 54.3 128.16 62.4 132.73 58.44 139.77 66.11 144.1 69.83 137.52 77.54 141.87 73.82 148.44 82.72 153.47 87.09 145.74 95.19 150.32 84.88 168.57 44.39 145.72"/><path class="cls-2" d="M98.91,113.94c-.78-.36-1.81-.53-3.1-.5-1.29,.03-2.92,.8-4.86,2.31,1.44-2.23,1.96-4.08,1.54-5.56-.42-1.48-2.05-3.34-4.89-5.59-3.11-2.46-5.77-3.75-7.98-3.87-2.21-.12-4.12,.47-5.72,1.78-1.14,.95-2.81,2.73-4.97,5.32l6.61,4.53c.51-.47,.99-.76,1.42-.83,.69-.13,1.61,.27,2.77,1.18l2,1.58c1.61,1.27,2.39,2.23,2.34,2.9-.04,.66-.49,1.52-1.33,2.59l-8.11-6.42c.31-.39,.62-.73,.91-1l-6.61-4.53c-.84,1-1.74,2.11-2.73,3.36l-5.31,6.72,36.49,28.85,7.5-9.49-16.45-13c1.03-1.31,1.9-1.93,2.61-1.87,.71,.06,2.05,.86,3.99,2.41l12.13,9.58,6.96-8.81-9.62-7.61c-2.94-2.33-4.8-3.67-5.59-4.03"/><path class="cls-2" d="M116.01,101.04l-1.57,1.42c-2.52-3.27-6.3-8.61-11.33-16.04,5.62,5.34,10.43,9.76,14.41,13.27l-1.51,1.35,5.57,6.09,1.71-1.54,6.04,5.81,9.2-8.28-36.26-29.95-13.01,11.7,26.54,38.69,9.31-8.38-5.06-6.7,1.51-1.36-5.57-6.09Z"/><path class="cls-2" d="M160.35,81.5c-.49-2.06-2.02-5.13-4.58-9.2l-.96-1.53-10.23,6.43,3.1,4.93c1.36,2.16,2.09,3.6,2.23,4.33,.13,.73-.19,1.34-.95,1.81-.79,.51-1.49,.53-2.08,.09-.59-.45-1.48-1.62-2.69-3.53l-11.48-18.28c-1.26-1.99-1.95-3.36-2.1-4.11-.15-.74,.2-1.38,1.04-1.9,.75-.47,1.38-.53,1.91-.17,.53,.35,1.42,1.53,2.67,3.52l4.32,6.86,10.23-6.44-2.35-3.74c-2.31-3.68-4.33-6.2-6.04-7.55-1.71-1.36-3.91-2.01-6.6-1.94-2.69,.06-5.56,1.05-8.56,2.94-2.22,1.4-3.95,3-5.2,4.83-1.23,1.83-1.92,3.7-2.06,5.62-.14,1.92,.14,3.65,.83,5.19,.7,1.54,1.94,3.73,3.73,6.57l7.22,11.49c2.42,3.86,4.56,6.55,6.4,8.08,1.84,1.52,4.07,2.22,6.69,2.08,2.63-.14,5.45-1.14,8.44-3.03,2.88-1.82,4.91-3.98,6.07-6.5,1.18-2.51,1.5-4.81,1.01-6.87"/><polygon class="cls-2" points="161.33 37.29 180.43 79.69 169.4 84.65 150.31 42.25 161.33 37.29"/><path class="cls-2" d="M196.35,66.86c-.66,.14-1.19-.02-1.54-.51-.39-.54-.96-2.12-1.72-4.7l-6.12-20.83c-.67-2.29-.92-3.73-.74-4.29,.18-.56,.58-.93,1.19-1.11,.71-.21,1.27-.06,1.67,.45,.4,.51,.91,1.81,1.51,3.88l6.03,20.5c.77,2.63,1.15,4.32,1.14,5.08-.02,.77-.42,1.26-1.21,1.49-.08,.02-.14,.02-.21,.03l1.99,7.63c.16-.04,.31-.08,.47-.12,2.51-.74,4.6-1.8,6.24-3.18,1.65-1.39,2.8-3.01,3.46-4.88,.66-1.87,.82-3.76,.48-5.69-.34-1.93-1.16-5.13-2.48-9.61l-2.24-7.64c-1.36-4.59-2.41-7.77-3.17-9.55-.75-1.77-1.95-3.27-3.56-4.49-1.62-1.21-3.49-1.94-5.62-2.16-2.12-.22-4.39,.01-6.78,.72-2.52,.74-4.6,1.8-6.25,3.18-1.65,1.38-2.8,3.01-3.46,4.88-.65,1.87-.81,3.77-.47,5.69,.33,1.93,1.16,5.13,2.48,9.62l2.24,7.63c1.36,4.6,2.41,7.78,3.17,9.55,.76,1.77,1.95,3.27,3.56,4.49,1.62,1.22,3.5,1.94,5.63,2.16,1.99,.21,4.1,0,6.31-.6l-1.99-7.63Z"/><polygon class="cls-2" points="243.91 65.59 238.87 19.35 228.82 20.45 231.08 41.26 222.08 21.18 212.03 22.28 217.06 68.51 227.12 67.41 224.83 46.39 233.37 66.73 243.91 65.59"/><path class="cls-2" d="M319.68,33.22c-.73-1.45-2.02-2.7-3.87-3.74-1.86-1.03-5.61-2.28-11.26-3.76l-8.75-2.29-11.72,44.98,13.63,3.55,2.02-7.92c-.54,0-1.18-.08-1.94-.28l7.71-29.59c1.28,.34,2.12,.7,2.5,1.08,.39,.39,.58,.89,.57,1.5-.02,.61-.3,1.93-.83,3.97l-4.55,17.47c-.78,3-1.46,4.79-2.02,5.37-.31,.31-.79,.46-1.43,.48l-2.02,7.92,1.12,.29c2.8,.73,4.93,1.12,6.4,1.18,1.47,.06,2.77-.17,3.92-.69,1.14-.53,2.08-1.42,2.81-2.68,.74-1.26,1.64-3.91,2.69-7.96l4.1-15.75c1.11-4.26,1.72-7.15,1.85-8.67,.12-1.52-.18-3.01-.91-4.47"/><polygon class="cls-2" points="334.66 34.95 353.12 43.05 349.38 51.57 342 48.33 338.46 56.4 345.37 59.43 341.81 67.53 334.9 64.49 330.78 73.86 338.91 77.42 335.17 85.94 315.98 77.52 334.66 34.95"/><polygon class="cls-2" points="393.4 68.43 409 81.7 402.97 88.79 396.58 83.36 390.87 90.07 396.56 94.91 390.83 101.65 385.14 96.81 372.49 111.7 363.28 103.87 393.4 68.43"/><path class="cls-2" d="M434.75,109.91l-23.5,20.34c-2.66,2.3-4.61,3.84-5.84,4.6-1.23,.76-2.79,1.2-4.66,1.33-1.87,.13-3.71-.25-5.5-1.14-1.8-.89-3.52-2.29-5.16-4.18-1.81-2.1-3.07-4.25-3.77-6.46-.7-2.21-.83-4.19-.4-5.95,.42-1.76,1.19-3.25,2.3-4.47,1.12-1.22,3.66-3.53,7.63-6.97l20.81-18.01,7.91,9.15-26.37,22.81c-1.54,1.33-2.44,2.26-2.73,2.8-.28,.54-.2,1.06,.24,1.57,.5,.58,1.06,.75,1.67,.51,.61-.24,1.8-1.12,3.55-2.64l25.92-22.42,7.91,9.15Z"/><polygon class="cls-2" points="454.92 141.26 447 146.11 443.24 140 411.54 159.43 405.22 149.13 436.92 129.69 433.19 123.6 441.12 118.74 454.92 141.26"/><path class="cls-2" d="M465.19,164.07l-7.61,2.47c.17,.55,.28,.98,.29,1.27,.03,.45-.19,.91-.63,1.38-.44,.47-1.34,.97-2.68,1.52-2.55,1.04-4.17,1.51-4.82,1.43-.67-.08-1.22-.68-1.67-1.77-.11-.27-.27-.64-.48-1.11l9.58-3.88c.17,.44,.3,.82,.42,1.16l7.61-2.47c-.21-.55-.42-1.11-.66-1.7l-4.53-11.18-43.09,17.44,3.92,9.7,8.14-1.13c-.05-.12-.1-.23-.16-.35l12.06-4.88c.62,1.69,.82,2.81,.58,3.35-.23,.55-1.27,1.2-3.11,1.94l-4.02,1.63c-1.74,.7-2.92,.92-3.54,.67-.57-.24-1.17-1.04-1.81-2.37l-8.14,1.13,1.32,3.27c1.83,4.5,3.29,7.38,4.39,8.63,1.1,1.24,2.49,1.91,4.16,2.01,1.67,.1,3.96-.44,6.88-1.62l3.99-1.61c2.8-1.14,4.7-2.44,5.68-3.91,.99-1.47,1.25-3.62,.78-6.44,1.47,2.1,2.87,3.35,4.18,3.74,1.31,.38,3.23,.07,5.75-.95,3.73-1.51,6.21-3.16,7.44-4.96,1.22-1.79,1.73-3.71,1.55-5.75-.16-1.7-.75-3.93-1.76-6.65"/><path class="cls-2" d="M478.15,203.26c-.53-2.57-1.42-4.74-2.67-6.49-1.25-1.76-2.77-3.04-4.58-3.84-1.81-.81-3.7-1.12-5.64-.94-1.95,.18-5.21,.75-9.79,1.69l-7.8,1.62c-4.68,.98-7.94,1.77-9.77,2.39-1.83,.61-3.42,1.67-4.77,3.19-1.35,1.51-2.22,3.32-2.62,5.43-.34,1.85-.34,3.83,0,5.94l7.84-1.49c.07-.41,.27-.73,.64-.96,.58-.35,2.19-.79,4.83-1.34l21.26-4.42c2.34-.49,3.79-.62,4.34-.39,.55,.23,.88,.66,1.01,1.27,.16,.73-.04,1.27-.58,1.64-.54,.36-1.87,.76-4,1.19l-20.92,4.35c-2.68,.56-4.4,.79-5.16,.72-.76-.07-1.22-.52-1.39-1.32-.06-.28-.05-.52-.03-.74l-7.84,1.49c.05,.29,.11,.59,.17,.88,.53,2.57,1.42,4.73,2.67,6.49,1.25,1.76,2.77,3.04,4.58,3.85,1.81,.81,3.7,1.12,5.64,.94,1.95-.18,5.21-.74,9.78-1.69l7.79-1.62c4.69-.98,7.95-1.77,9.77-2.38,1.83-.62,3.42-1.67,4.77-3.19,1.34-1.51,2.22-3.33,2.61-5.43,.39-2.11,.34-4.38-.17-6.82"/><polygon class="cls-2" points="481.87 241.38 481.21 229.31 434.78 231.83 435.83 251.24 445.12 250.74 444.73 243.39 481.87 241.38"/><path class="cls-2" d="M127.5,416.22c0,3.69-3,6.68-6.68,6.68s-6.68-3-6.68-6.68,2.99-6.69,6.68-6.69,6.68,2.99,6.68,6.69"/><path class="cls-2" d="M391.28,405.08c0,3.69-2.99,6.68-6.68,6.68s-6.69-2.99-6.69-6.68,2.99-6.69,6.69-6.69,6.68,2.99,6.68,6.69"/><path class="cls-3" d="M367.59,255.92H133.89c-3.52,7.48-6.46,16.11-6.46,28.18,0,30.3,22.36,61.66,70.4,77.98,47.24,16.03,52.91,24.28,52.91,24.28,0,0,5.68-8.24,52.92-24.28,48.03-16.32,70.4-47.68,70.4-77.98,0-12.07-2.93-20.7-6.46-28.18"/><path class="cls-1" d="M355.56,222.16c0-22.95,13.59-42.33,13.59-42.33l-31.42-37.43c-59.93,27.18-60.49,1.56-87,1.56s-27.07,25.62-87-1.56l-31.42,37.43s13.59,19.38,13.59,42.33c0,11.26-4.46,19.1-8.99,27.74h227.63c-4.54-8.64-8.99-16.48-8.99-27.74"/><polygon class="cls-2" points="250.68 294.13 302.48 328.21 285.99 270.51 330.1 234.19 272.18 234.19 250.68 176.49 229.18 234.19 171.25 234.19 215.36 270.51 198.88 328.21 250.68 294.13"/></g><path class="cls-1" d="M478.99,464.7c0,7.1-5.58,12.68-12.83,12.68s-12.91-5.58-12.91-12.68,5.73-12.53,12.91-12.53,12.83,5.58,12.83,12.53Zm-22.54,0c0,5.58,4.13,10.01,9.78,10.01s9.55-4.43,9.55-9.93-4.05-10.08-9.62-10.08-9.7,4.51-9.7,10.01Zm7.71,6.57h-2.9v-12.53c1.15-.23,2.75-.38,4.81-.38,2.37,0,3.44,.38,4.35,.92,.69,.53,1.22,1.53,1.22,2.75,0,1.38-1.07,2.45-2.6,2.9v.15c1.22,.46,1.91,1.38,2.29,3.06,.38,1.91,.61,2.67,.92,3.13h-3.13c-.38-.46-.61-1.61-.99-3.06-.23-1.38-.99-1.99-2.6-1.99h-1.38v5.04Zm.08-7.1h1.37c1.61,0,2.9-.54,2.9-1.83,0-1.15-.84-1.91-2.67-1.91-.76,0-1.3,.08-1.6,.15v3.59Z"/></svg>