<svg width="14" height="13" viewBox="0 0 14 13" fill="none" xmlns="http://www.w3.org/2000/svg">
<path fill-rule="evenodd" clip-rule="evenodd" d="M13.1321 0.377684C12.7525 -0.00191425 12.1393 -0.00191425 11.7597 0.377684L7.00016 5.12753L2.24059 0.36795C1.86099 -0.0116476 1.24779 -0.0116476 0.868195 0.36795C0.488597 0.747548 0.488597 1.36075 0.868195 1.74034L5.62777 6.49992L0.868195 11.2595C0.488597 11.6391 0.488597 12.2523 0.868195 12.6319C1.24779 13.0115 1.86099 13.0115 2.24059 12.6319L7.00016 7.87231L11.7597 12.6319C12.1393 13.0115 12.7525 13.0115 13.1321 12.6319C13.5117 12.2523 13.5117 11.6391 13.1321 11.2595L8.37256 6.49992L13.1321 1.74034C13.502 1.37048 13.502 0.747548 13.1321 0.377684Z" fill="#2772CC"/>
</svg>
