<svg width="29" height="29" viewBox="0 0 29 29" fill="none" xmlns="http://www.w3.org/2000/svg">
<path d="M20.5114 18.1101H19.2467L18.7985 17.6778C20.3674 15.8528 21.3119 13.4834 21.3119 10.9059C21.3119 5.15866 16.6532 0.5 10.9059 0.5C5.15866 0.5 0.5 5.15866 0.5 10.9059C0.5 16.6532 5.15866 21.3119 10.9059 21.3119C13.4834 21.3119 15.8528 20.3674 17.6778 18.7985L18.1101 19.2467V20.5114L26.1146 28.5L28.5 26.1146L20.5114 18.1101ZM10.9059 18.1101C6.91967 18.1101 3.70183 14.8922 3.70183 10.9059C3.70183 6.91967 6.91967 3.70183 10.9059 3.70183C14.8922 3.70183 18.1101 6.91967 18.1101 10.9059C18.1101 14.8922 14.8922 18.1101 10.9059 18.1101Z" fill="#2772CC"/>
</svg>
